<?xml version="1.0" encoding="UTF-8"?>
<!DOCTYPE svg PUBLIC "-//W3C//DTD SVG 1.1//EN" "http://www.w3.org/Graphics/SVG/1.1/DTD/svg11.dtd">
<svg version="1.1" xmlns="http://www.w3.org/2000/svg" xmlns:xlink="http://www.w3.org/1999/xlink" x="0" y="0" width="875.599" height="906.229" viewBox="0, 0, 875.599, 906.229">
  <g id="Layer_1">
    <path d="M152.324,0.001 C135.759,0.08 120.952,6.708 112.736,16.807 C87.341,48.042 -38.205,140.552 11.55,281.802 C43.185,371.592 74.32,394.071 83.095,462.231 C96.145,563.601 95.64,744.266 95.64,744.266 C102.665,753.301 119.88,760.011 134.935,757.001 C134.945,756.476 134.946,755.857 134.951,755.302 L135.281,756.501 C136.961,756.051 151.695,751.782 154.22,742.292 L154.377,741.712 L154.351,741.106 C152.296,684.836 150.411,573.877 155.101,528.802 C185.106,617.707 231.016,756.492 246.066,813.327 C397.581,917.242 695.35,905.862 783.675,905.862 C833.735,905.862 871.561,900.695 875.14,879.032 C878.997,855.693 857.884,835.419 835.615,815.497 C777.104,763.154 717.696,711.777 660.957,657.632 C608.104,607.196 568.441,564.864 528.916,510.407 C412.444,349.932 348.741,150.416 288.886,88.856 C246.891,45.661 209.475,19.256 179.105,5.706 C170.159,1.713 161.001,-0.041 152.324,0.001 z" fill="#000000" id="path41064"/>
    <path d="M733.846,861.482 C693.882,862.779 653.809,861.452 613.901,859.188 C554.797,854.958 495.841,847.481 438.057,834.14 C400.372,825.074 362.629,814.578 328.001,796.797 C383.942,814.312 442.18,822.901 500.059,831.201 C561.393,839.225 623.004,845.041 684.738,848.981 C726.517,852.71 768.509,853.227 810.276,857.182 C784.836,859.191 759.345,860.509 733.846,861.482 z" fill="#FFFFFF" id="path54991"/>
    <path d="M140.566,237.112 C140.996,236.312 141.401,235.472 141.971,234.787 C145.231,230.932 150.651,228.972 158.111,228.972 C190.371,228.972 250.431,266.311 291.216,326.647 C309.241,353.307 330.726,393.397 355.606,439.827 C406.761,535.312 468.091,649.766 528.851,699.781 C479.326,707.797 408.891,703.742 328.001,676.016 C207.621,569.012 158.341,383.447 140.566,237.112" fill="#FFFFFF" id="path54989"/>
    <path d="M145.606,717.137 C143.191,718.692 139.021,720.602 134.601,722.262 C132.766,642.337 125.666,492.527 139.306,482.302 C142.301,491.067 145.801,501.342 149.636,512.677 C141.931,544.036 144.201,664.897 145.606,717.137" fill="#FFFFFF" id="path54987"/>
    <path d="M134.981,748.196 C134.976,743.031 134.906,737.186 134.786,730.716 C138.746,729.346 142.631,727.696 145.846,726.096 C146.076,733.661 146.246,738.866 146.306,740.681 C145.046,743.727 139.521,746.646 134.981,748.196" fill="#FFFFFF" id="path54985"/>
    <path d="M134.936,33.652 C137.601,14.902 263.211,42.747 325.326,185.207 C444.766,459.142 508.496,516.197 598.996,639.647 C615.691,662.427 590.866,687.096 539.226,697.882 C478.466,652.096 415.161,533.977 362.681,436.027 C337.701,389.412 316.121,349.147 297.866,322.142 C255.046,258.802 193.171,220.942 158.111,220.942 C150.381,220.942 144.031,222.872 139.311,226.452 C129.121,136.022 130.906,62.092 134.936,33.652" fill="#FFFFFF" id="path54983"/>
    <path d="M96.966,69.237 C81.49,88.163 70.71,110.533 61.575,133.086 C50.901,160.34 44.219,189.283 43.471,218.602 C43.379,231.567 44.05,244.565 46.385,257.354 C48.058,268.258 51.054,278.986 54.468,289.454 C58.817,301.296 63.428,312.984 69.461,324.09 C71.425,328.12 75.067,335.057 69.774,327.906 C60.668,317.646 52.7,306.499 46.466,294.262 C41.01,284.556 37.453,273.829 34.076,263.26 C28.887,244.127 26.92,224.219 28.342,204.445 C29.654,187.531 32.925,170.664 38.515,154.632 C49.444,123.293 66.768,93.29 92.182,71.507 C93.756,70.57 102.747,63.521 96.966,69.237 z" fill="#FFFFFF" id="path54971"/>
  </g>
</svg>
